<?xml version="1.0" standalone="no"?><!DOCTYPE svg PUBLIC "-//W3C//DTD SVG 1.1//EN" "http://www.w3.org/Graphics/SVG/1.1/DTD/svg11.dtd"><svg t="1721999473346" class="icon" viewBox="0 0 1024 1024" version="1.1" xmlns="http://www.w3.org/2000/svg" p-id="2354" xmlns:xlink="http://www.w3.org/1999/xlink" width="200" height="200"><path d="M725.333333 887.466667h-477.866666c-37.546667 0-68.266667-30.72-68.266667-68.266667V204.8c0-37.546667 30.72-68.266667 68.266667-68.266667h414.72c18.773333 0 34.133333 15.36 34.133333 34.133334s-15.36 34.133333-34.133333 34.133333H247.466667v614.4h477.866666V401.066667c0-18.773333 15.36-34.133333 34.133334-34.133334s34.133333 15.36 34.133333 34.133334V819.2c0 37.546667-30.72 68.266667-68.266667 68.266667z" fill="#3793DF" p-id="2355"></path><path d="M452.266667 477.866667h-136.533334c-18.773333 0-34.133333-15.36-34.133333-34.133334s15.36-34.133333 34.133333-34.133333h136.533334c18.773333 0 34.133333 15.36 34.133333 34.133333s-15.36 34.133333-34.133333 34.133334zM588.8 614.4h-273.066667c-18.773333 0-34.133333-15.36-34.133333-34.133333s15.36-34.133333 34.133333-34.133334h273.066667c18.773333 0 34.133333 15.36 34.133333 34.133334s-15.36 34.133333-34.133333 34.133333zM588.8 750.933333h-273.066667c-18.773333 0-34.133333-15.36-34.133333-34.133333s15.36-34.133333 34.133333-34.133333h273.066667c18.773333 0 34.133333 15.36 34.133333 34.133333s-15.36 34.133333-34.133333 34.133333z" fill="#3793DF" p-id="2356"></path><path d="M570.026667 462.506667c-8.533333 0-17.066667-3.413333-23.893334-10.24-13.653333-13.653333-13.653333-34.133333 0-47.786667L786.773333 162.133333c13.653333-13.653333 34.133333-13.653333 47.786667 0 13.653333 13.653333 13.653333 34.133333 0 47.786667L593.92 452.266667c-6.826667 6.826667-15.36 10.24-23.893333 10.24z" fill="#EB4AF4" p-id="2357"></path></svg>