<?xml version="1.0" standalone="no"?><!DOCTYPE svg PUBLIC "-//W3C//DTD SVG 1.1//EN" "http://www.w3.org/Graphics/SVG/1.1/DTD/svg11.dtd"><svg t="1722076494926" class="icon" viewBox="0 0 1024 1024" version="1.1" xmlns="http://www.w3.org/2000/svg" p-id="5235" xmlns:xlink="http://www.w3.org/1999/xlink" width="200" height="200"><path d="M898.688 129.664H716.8v70.784h181.76a35.328 35.328 0 0 1 35.328 35.328v317.312a35.328 35.328 0 0 1-35.328 35.328H563.072a35.328 35.328 0 1 0 0 70.656h335.616c58.624 0 106.112-47.616 106.112-106.112V235.776c0-59.776-47.616-106.112-106.112-106.112z" fill="#273238" p-id="5236"></path><path d="M176.256 587.264H121.344a35.328 35.328 0 0 1-35.328-35.328V234.624a35.328 35.328 0 0 1 35.328-35.328H350.72a35.328 35.328 0 1 0 0-70.656H121.344c-58.624 0-106.112 47.616-106.112 106.112v317.312c0 58.624 47.616 106.112 106.112 106.112h35.328l19.584-70.912zM369.024 827.648c-18.304 0-34.176-14.592-35.328-34.176l-70.784 1.28c1.28 57.344 47.616 103.68 106.112 103.68h355.072l4.864-70.784H369.024z" fill="#273238" p-id="5237"></path><path d="M580.096 22.272c-78.08 0-142.72 63.488-142.72 142.72s63.488 142.72 142.72 142.72c78.08 0 142.72-63.488 142.72-142.72S659.456 22.272 580.096 22.272z m0 213.504c-39.04 0-70.784-31.744-70.784-70.784s31.744-70.784 70.784-70.784 70.784 31.744 70.784 70.784c0 39.04-30.464 70.784-70.784 70.784zM292.224 520.064c-78.08 0-142.72 63.488-142.72 142.72s63.488 142.72 142.72 142.72c78.08 0 142.72-63.488 142.72-142.72s-64.64-142.72-142.72-142.72z m0 212.352c-39.04 0-70.784-31.744-70.784-70.784s31.744-70.784 70.784-70.784 70.784 31.744 70.784 70.784-31.744 70.784-70.784 70.784zM838.784 699.52c-78.08 0-142.72 63.488-142.72 142.72s63.488 142.72 142.72 142.72c78.08 0 142.72-63.488 142.72-142.72s-63.36-142.72-142.72-142.72z m0 212.352c-39.04 0-70.784-31.744-70.784-70.784s31.744-70.784 70.784-70.784c39.04 0 70.784 31.744 70.784 70.784s-30.464 70.784-70.784 70.784z" fill="#149363" p-id="5238"></path></svg>