<?xml version="1.0" standalone="no"?><!DOCTYPE svg PUBLIC "-//W3C//DTD SVG 1.1//EN" "http://www.w3.org/Graphics/SVG/1.1/DTD/svg11.dtd"><svg t="1721647966528" class="icon" viewBox="0 0 1024 1024" version="1.1" xmlns="http://www.w3.org/2000/svg" p-id="12112" xmlns:xlink="http://www.w3.org/1999/xlink" width="200" height="200"><path d="M910.222222 1024H113.777778a113.777778 113.777778 0 0 1-113.777778-113.777778V113.777778a113.777778 113.777778 0 0 1 113.777778-113.777778h796.444444a113.777778 113.777778 0 0 1 113.777778 113.777778v796.444444a113.777778 113.777778 0 0 1-113.777778 113.777778z m0-910.222222H113.777778v796.444444h796.444444V113.777778zM341.333333 227.555556a55.978667 55.978667 0 0 1 44.771556 23.381333L777.102222 455.111111 796.444444 512l-19.057777 49.436444-383.715556 200.362667A56.888889 56.888889 0 0 1 341.333333 796.444444a56.888889 56.888889 0 0 1-56.888889-56.888888V284.444444a56.888889 56.888889 0 0 1 56.888889-56.888888z m56.888889 403.626666l235.235556-122.823111L398.222222 385.479111V631.466667z" fill="#3BA1FF" p-id="12113"></path></svg>