<?xml version="1.0" ?><svg style="enable-background:new 0 0 512 512;" version="1.1" viewBox="0 0 512 512" xml:space="preserve" xmlns="http://www.w3.org/2000/svg" xmlns:xlink="http://www.w3.org/1999/xlink"><style type="text/css">
	.st0{fill:#0795FE;}
	.st1{fill:#FFFFFF;}
	.st2{fill:#E6E7E8;}
	.st3{fill:#3E4D6C;}
	.st4{fill-rule:evenodd;clip-rule:evenodd;fill:#FFFFFF;}
	.st5{fill-rule:evenodd;clip-rule:evenodd;fill:#0795FE;}
	
		.st6{fill-rule:evenodd;clip-rule:evenodd;fill:#FFFFFF;stroke:#3E4D6C;stroke-width:32;stroke-linejoin:round;stroke-miterlimit:10;}
</style><g id="_x35_0_marvel"/><g id="_x34_9_score"/><g id="_x34_8_manual"/><g id="_x34_7_ads"/><g id="_x34_6_firefox"/><g id="_x34_5_together"/><g id="_x34_4_timeline"/><g id="_x34_3_podcast"/><g id="_x34_2_python"/><g id="_x34_1_anime"/><g id="_x34_0_platform"/><g id="_x33_9_about_us"/><g id="_x33_8_farmer"/><g id="_x33_7_check_list"/><g id="_x33_6_step"/><g id="_x33_5_csv"/><g id="_x33_4_play_button"><g><g><circle class="st1" cx="256" cy="256" r="218"/><path class="st2" d="M338,384c-120.4,0-218-97.6-218-218c0-34.4,8-67,22.2-96C79.7,108.3,38,177.3,38,256     c0,120.4,97.6,218,218,218c86,0,160.3-49.7,195.8-122C418.7,372.3,379.7,384,338,384z"/><path class="st3" d="M256,490c-62.5,0-121.3-24.3-165.5-68.5C46.3,377.3,22,318.5,22,256S46.3,134.7,90.5,90.5     C134.7,46.3,193.5,22,256,22s121.3,24.3,165.5,68.5c44.2,44.2,68.5,103,68.5,165.5s-24.3,121.3-68.5,165.5     C377.3,465.7,318.5,490,256,490z M256,54C144.6,54,54,144.6,54,256s90.6,202,202,202s202-90.6,202-202S367.4,54,256,54z"/></g><path class="st0" d="M256,404c-81.6,0-148-66.4-148-148s66.4-148,148-148s148,66.4,148,148S337.6,404,256,404z"/><polygon class="st1" points="213.8,338.2 213.8,173.8 338.2,256   "/></g></g><g id="_x33_3_arrow_up"/><g id="_x33_2_thank_you"/><g id="_x33_1_cars"/><g id="_x33_0_muscle"/><g id="_x32_9_sensor"/><g id="_x32_8_install"/><g id="_x32_7_ear"/><g id="_x32_6_strong"/><g id="_x32_5_wallet"/><g id="_x32_4_change_password"/><g id="_x32_3_submit"/><g id="_x32_2_booking"/><g id="_x32_1_challenge"/><g id="_x32_0_radio_button"/><g id="_x31_9_restart"/><g id="_x31_8_me"/><g id="_x31_7_active"/><g id="_x31_6_course"/><g id="_x31_5_restore"/><g id="_x31_4_events"/><g id="_x31_3_age"/><g id="_x31_1_driver"/><g id="_x31_1_quiz"/><g id="_x31_0_detail"/><g id="_x30_9_compare"/><g id="_x30_8_config"/><g id="_x30_7_java"/><g id="_x30_6_reports"/><g id="_x30_5_all"/><g id="_x30_4_notice"/><g id="_x30_3_javascript"/><g id="_x30_2_no_image"/><g id="_x30_1_app_store"/></svg>